<mxfile host="65bd71144e">
    <diagram id="vsvI_I3F5VlAafH_ocpz" name="PÃ¡gina-1">
        <mxGraphModel dx="2521" dy="667" grid="1" gridSize="10" guides="1" tooltips="1" connect="1" arrows="1" fold="1" page="1" pageScale="1" pageWidth="1169" pageHeight="1654" math="0" shadow="0">
            <root>
                <mxCell id="0"/>
                <mxCell id="1" parent="0"/>
                <mxCell id="17" value="" style="edgeStyle=none;html=1;" parent="1" source="2" target="4" edge="1">
                    <mxGeometry relative="1" as="geometry"/>
                </mxCell>
                <mxCell id="2" value="&lt;b style=&quot;color: rgb(0 , 0 , 0) ; font-size: 14px&quot;&gt;&quot;Select Instrument&quot; b&lt;/b&gt;&lt;span style=&quot;font-size: 14px&quot;&gt;&lt;b&gt;utton clicked&lt;/b&gt;&lt;/span&gt;" style="rounded=1;whiteSpace=wrap;html=1;fillColor=#f5f5f5;strokeColor=#666666;fontColor=#333333;" parent="1" vertex="1">
                    <mxGeometry x="170" y="40" width="164" height="80" as="geometry"/>
                </mxCell>
                <mxCell id="18" value="" style="edgeStyle=none;html=1;" parent="1" source="4" target="5" edge="1">
                    <mxGeometry relative="1" as="geometry"/>
                </mxCell>
                <mxCell id="4" value="Selected instrument's name posted and&amp;nbsp; page reloaded&amp;nbsp;" style="rounded=0;whiteSpace=wrap;html=1;fontSize=14;fillColor=#ffe6cc;strokeColor=#d79b00;" parent="1" vertex="1">
                    <mxGeometry x="132" y="150" width="240" height="100" as="geometry"/>
                </mxCell>
                <mxCell id="19" value="" style="edgeStyle=none;html=1;" parent="1" source="5" target="7" edge="1">
                    <mxGeometry relative="1" as="geometry"/>
                </mxCell>
                <mxCell id="5" value="PHP page script executed" style="shape=document;whiteSpace=wrap;html=1;boundedLbl=1;fontSize=14;fillColor=#dae8fc;strokeColor=#6c8ebf;" parent="1" vertex="1">
                    <mxGeometry x="192" y="280" width="120" height="80" as="geometry"/>
                </mxCell>
                <mxCell id="7" value="Is the name posted?" style="rhombus;whiteSpace=wrap;html=1;fontSize=14;fillColor=#e1d5e7;strokeColor=#9673a6;" parent="1" vertex="1">
                    <mxGeometry x="189" y="390" width="126" height="115" as="geometry"/>
                </mxCell>
                <mxCell id="8" value="" style="edgeStyle=elbowEdgeStyle;elbow=horizontal;endArrow=classic;html=1;fontSize=14;exitX=0;exitY=0.5;exitDx=0;exitDy=0;entryX=0.5;entryY=0;entryDx=0;entryDy=0;fillColor=#ffe6cc;strokeColor=#d79b00;" parent="1" source="7" target="12" edge="1">
                    <mxGeometry width="50" height="50" relative="1" as="geometry">
                        <mxPoint x="182" y="440" as="sourcePoint"/>
                        <mxPoint x="60" y="510" as="targetPoint"/>
                        <Array as="points">
                            <mxPoint x="60" y="450"/>
                            <mxPoint x="162" y="510"/>
                            <mxPoint x="170" y="522.5"/>
                            <mxPoint x="167" y="522.5"/>
                            <mxPoint x="167" y="512.5"/>
                            <mxPoint x="167" y="512.5"/>
                            <mxPoint x="167" y="542.5"/>
                            <mxPoint x="184" y="502.5"/>
                            <mxPoint x="164" y="512.5"/>
                            <mxPoint x="164" y="500"/>
                        </Array>
                    </mxGeometry>
                </mxCell>
                <mxCell id="9" value="YES" style="text;html=1;align=center;verticalAlign=middle;whiteSpace=wrap;rounded=0;fontSize=14;direction=east;" parent="1" vertex="1">
                    <mxGeometry x="450" y="460" width="60" height="30" as="geometry"/>
                </mxCell>
                <mxCell id="10" value="NO" style="text;html=1;align=center;verticalAlign=middle;whiteSpace=wrap;rounded=0;fontSize=14;direction=east;" parent="1" vertex="1">
                    <mxGeometry y="460" width="60" height="30" as="geometry"/>
                </mxCell>
                <mxCell id="11" value="" style="edgeStyle=elbowEdgeStyle;elbow=horizontal;endArrow=classic;html=1;fontSize=14;exitX=1;exitY=0.5;exitDx=0;exitDy=0;entryX=0.5;entryY=0;entryDx=0;entryDy=0;fillColor=#ffe6cc;strokeColor=#d79b00;" parent="1" source="7" target="13" edge="1">
                    <mxGeometry width="50" height="50" relative="1" as="geometry">
                        <mxPoint x="342" y="502.5" as="sourcePoint"/>
                        <mxPoint x="450" y="510" as="targetPoint"/>
                        <Array as="points">
                            <mxPoint x="450" y="450"/>
                            <mxPoint x="440" y="450"/>
                            <mxPoint x="359" y="440"/>
                            <mxPoint x="339" y="450"/>
                            <mxPoint x="339" y="437.5"/>
                        </Array>
                    </mxGeometry>
                </mxCell>
                <mxCell id="12" value="Keep waiting for the user to select an instrument and click the button" style="rounded=0;whiteSpace=wrap;html=1;fontSize=14;fillColor=#ffe6cc;strokeColor=#d79b00;" parent="1" vertex="1">
                    <mxGeometry x="-60" y="520" width="240" height="100" as="geometry"/>
                </mxCell>
                <mxCell id="20" value="" style="edgeStyle=none;html=1;" parent="1" source="13" target="14" edge="1">
                    <mxGeometry relative="1" as="geometry"/>
                </mxCell>
                <mxCell id="13" value="&lt;b&gt;$instrument&amp;nbsp;&lt;/b&gt;&lt;span&gt;variable defined by&amp;nbsp; retriving posted instruments's name&lt;/span&gt;" style="rounded=0;whiteSpace=wrap;html=1;fontSize=14;fillColor=#ffe6cc;strokeColor=#d79b00;" parent="1" vertex="1">
                    <mxGeometry x="330" y="520" width="240" height="100" as="geometry"/>
                </mxCell>
                <mxCell id="31" style="edgeStyle=none;html=1;" parent="1" source="14" target="21" edge="1">
                    <mxGeometry relative="1" as="geometry"/>
                </mxCell>
                <mxCell id="14" value="&lt;b&gt;$fields&lt;/b&gt;&lt;span&gt;&amp;nbsp;variable defined by calling REDCap function:&amp;nbsp;&lt;/span&gt;&lt;br&gt;&lt;b&gt;&quot;getFieldNames($instrument)&quot;&lt;/b&gt;" style="rounded=0;whiteSpace=wrap;html=1;fontSize=14;fillColor=#ffe6cc;strokeColor=#d79b00;" parent="1" vertex="1">
                    <mxGeometry x="330" y="660" width="240" height="100" as="geometry"/>
                </mxCell>
                <mxCell id="32" style="edgeStyle=none;html=1;" parent="1" source="21" target="22" edge="1">
                    <mxGeometry relative="1" as="geometry"/>
                </mxCell>
                <mxCell id="52" style="edgeStyle=none;html=1;" parent="1" source="21" target="33" edge="1">
                    <mxGeometry relative="1" as="geometry"/>
                </mxCell>
                <mxCell id="21" value="Selected instrument's name displayed and an input file object named&lt;b&gt; &quot;Select a File to Load&quot;&amp;nbsp;&lt;/b&gt;" style="rounded=0;whiteSpace=wrap;html=1;fontSize=14;fillColor=#ffe6cc;strokeColor=#d79b00;" parent="1" vertex="1">
                    <mxGeometry x="330" y="800" width="240" height="100" as="geometry"/>
                </mxCell>
                <mxCell id="22" value="Is the file loaded?" style="rhombus;whiteSpace=wrap;html=1;fontSize=14;fillColor=#e1d5e7;strokeColor=#9673a6;" parent="1" vertex="1">
                    <mxGeometry x="620" y="792.5" width="126" height="115" as="geometry"/>
                </mxCell>
                <mxCell id="23" value="" style="edgeStyle=elbowEdgeStyle;elbow=horizontal;endArrow=classic;html=1;fontSize=14;exitX=0.5;exitY=0;exitDx=0;exitDy=0;entryX=0;entryY=0.5;entryDx=0;entryDy=0;fillColor=#ffe6cc;strokeColor=#d79b00;" parent="1" source="22" target="28" edge="1">
                    <mxGeometry width="50" height="50" relative="1" as="geometry">
                        <mxPoint x="680" y="747.5" as="sourcePoint"/>
                        <mxPoint x="770" y="760" as="targetPoint"/>
                        <Array as="points">
                            <mxPoint x="683" y="740"/>
                            <mxPoint x="700" y="730"/>
                            <mxPoint x="680" y="740"/>
                            <mxPoint x="680" y="727.5"/>
                        </Array>
                    </mxGeometry>
                </mxCell>
                <mxCell id="24" value="" style="edgeStyle=elbowEdgeStyle;elbow=horizontal;endArrow=classic;html=1;fontSize=14;exitX=0.5;exitY=1;exitDx=0;exitDy=0;entryX=0;entryY=0.5;entryDx=0;entryDy=0;fillColor=#ffe6cc;strokeColor=#d79b00;" parent="1" source="22" target="27" edge="1">
                    <mxGeometry width="50" height="50" relative="1" as="geometry">
                        <mxPoint x="680" y="1020" as="sourcePoint"/>
                        <mxPoint x="770" y="940" as="targetPoint"/>
                        <Array as="points">
                            <mxPoint x="683" y="950"/>
                            <mxPoint x="680" y="950"/>
                            <mxPoint x="680" y="940"/>
                            <mxPoint x="680" y="940"/>
                            <mxPoint x="680" y="970"/>
                            <mxPoint x="697" y="930"/>
                            <mxPoint x="677" y="940"/>
                            <mxPoint x="677" y="927.5"/>
                        </Array>
                    </mxGeometry>
                </mxCell>
                <mxCell id="25" value="YES" style="text;html=1;align=center;verticalAlign=middle;whiteSpace=wrap;rounded=0;fontSize=14;" parent="1" vertex="1">
                    <mxGeometry x="690" y="730" width="60" height="30" as="geometry"/>
                </mxCell>
                <mxCell id="26" value="NO" style="text;html=1;align=center;verticalAlign=middle;whiteSpace=wrap;rounded=0;fontSize=14;" parent="1" vertex="1">
                    <mxGeometry x="690" y="940" width="60" height="30" as="geometry"/>
                </mxCell>
                <mxCell id="27" value="Do nothing" style="rounded=0;whiteSpace=wrap;html=1;fontSize=14;fillColor=#ffe6cc;strokeColor=#d79b00;" parent="1" vertex="1">
                    <mxGeometry x="770" y="890" width="240" height="100" as="geometry"/>
                </mxCell>
                <mxCell id="30" style="edgeStyle=none;html=1;" parent="1" source="28" target="29" edge="1">
                    <mxGeometry relative="1" as="geometry"/>
                </mxCell>
                <mxCell id="28" value="JS &lt;b&gt;&quot;loadFileAsText()&quot;&lt;/b&gt; &quot;function executed" style="shape=document;whiteSpace=wrap;html=1;boundedLbl=1;fontSize=14;fillColor=#dae8fc;strokeColor=#6c8ebf;" parent="1" vertex="1">
                    <mxGeometry x="770" y="720" width="120" height="80" as="geometry"/>
                </mxCell>
                <mxCell id="29" value="New &lt;b&gt;FileReader() &lt;/b&gt;object defined from the .txt and its content is written into the text box HTML object" style="rounded=0;whiteSpace=wrap;html=1;fontSize=14;fillColor=#ffe6cc;strokeColor=#d79b00;" parent="1" vertex="1">
                    <mxGeometry x="940" y="710" width="240" height="100" as="geometry"/>
                </mxCell>
                <mxCell id="53" style="edgeStyle=none;html=1;" parent="1" source="33" target="34" edge="1">
                    <mxGeometry relative="1" as="geometry"/>
                </mxCell>
                <mxCell id="33" value="Text box HTML object and &quot;INSTRUMENT VARIABLE NAMES&quot; column with the instrument fields' name created" style="rounded=0;whiteSpace=wrap;html=1;fontSize=14;fillColor=#ffe6cc;strokeColor=#d79b00;" parent="1" vertex="1">
                    <mxGeometry x="330" y="990" width="240" height="100" as="geometry"/>
                </mxCell>
                <mxCell id="105" style="edgeStyle=none;html=1;entryX=1;entryY=0.5;entryDx=0;entryDy=0;" edge="1" parent="1" source="34" target="92">
                    <mxGeometry relative="1" as="geometry"/>
                </mxCell>
                <mxCell id="34" value="&lt;b&gt;Text box &lt;/b&gt;and&amp;nbsp;&lt;b&gt;&quot;Update Text&quot; &lt;/b&gt;button created" style="rounded=0;whiteSpace=wrap;html=1;fontSize=14;fillColor=#ffe6cc;strokeColor=#d79b00;" parent="1" vertex="1">
                    <mxGeometry x="330" y="1180" width="240" height="100" as="geometry"/>
                </mxCell>
                <mxCell id="45" value="" style="edgeStyle=elbowEdgeStyle;elbow=horizontal;endArrow=classic;html=1;fontSize=14;exitX=0.5;exitY=1;exitDx=0;exitDy=0;entryX=0;entryY=0.5;entryDx=0;entryDy=0;fillColor=#ffe6cc;strokeColor=#d79b00;" parent="1" target="48" edge="1">
                    <mxGeometry width="50" height="50" relative="1" as="geometry">
                        <mxPoint x="683" y="1287.5" as="sourcePoint"/>
                        <mxPoint x="770" y="1320" as="targetPoint"/>
                        <Array as="points">
                            <mxPoint x="683" y="1330"/>
                            <mxPoint x="680" y="1330"/>
                            <mxPoint x="680" y="1320"/>
                            <mxPoint x="680" y="1320"/>
                            <mxPoint x="680" y="1350"/>
                            <mxPoint x="697" y="1310"/>
                            <mxPoint x="677" y="1320"/>
                            <mxPoint x="677" y="1307.5"/>
                        </Array>
                    </mxGeometry>
                </mxCell>
                <mxCell id="80" style="edgeStyle=none;html=1;" edge="1" parent="1" target="82">
                    <mxGeometry relative="1" as="geometry">
                        <mxPoint x="450" y="1280" as="sourcePoint"/>
                    </mxGeometry>
                </mxCell>
                <mxCell id="81" style="edgeStyle=none;html=1;" edge="1" parent="1" source="82" target="83">
                    <mxGeometry relative="1" as="geometry"/>
                </mxCell>
                <mxCell id="82" value="&lt;b&gt;&quot;Save template&quot; &lt;/b&gt;button created" style="rounded=0;whiteSpace=wrap;html=1;fontSize=14;fillColor=#ffe6cc;strokeColor=#d79b00;" vertex="1" parent="1">
                    <mxGeometry x="330" y="1370" width="240" height="100" as="geometry"/>
                </mxCell>
                <mxCell id="83" value="Is the button pressed?" style="rhombus;whiteSpace=wrap;html=1;fontSize=14;fillColor=#e1d5e7;strokeColor=#9673a6;" vertex="1" parent="1">
                    <mxGeometry x="620" y="1362.5" width="126" height="115" as="geometry"/>
                </mxCell>
                <mxCell id="84" value="" style="edgeStyle=elbowEdgeStyle;elbow=horizontal;endArrow=classic;html=1;fontSize=14;exitX=0.5;exitY=0;exitDx=0;exitDy=0;entryX=0;entryY=0.5;entryDx=0;entryDy=0;fillColor=#ffe6cc;strokeColor=#d79b00;" edge="1" parent="1" source="83" target="90">
                    <mxGeometry width="50" height="50" relative="1" as="geometry">
                        <mxPoint x="680" y="1317.5" as="sourcePoint"/>
                        <mxPoint x="770" y="1330" as="targetPoint"/>
                        <Array as="points">
                            <mxPoint x="683" y="1310"/>
                            <mxPoint x="700" y="1300"/>
                            <mxPoint x="680" y="1310"/>
                            <mxPoint x="680" y="1297.5"/>
                        </Array>
                    </mxGeometry>
                </mxCell>
                <mxCell id="85" value="" style="edgeStyle=elbowEdgeStyle;elbow=horizontal;endArrow=classic;html=1;fontSize=14;exitX=0.5;exitY=1;exitDx=0;exitDy=0;entryX=0;entryY=0.5;entryDx=0;entryDy=0;fillColor=#ffe6cc;strokeColor=#d79b00;" edge="1" parent="1" source="83" target="88">
                    <mxGeometry width="50" height="50" relative="1" as="geometry">
                        <mxPoint x="680" y="1590" as="sourcePoint"/>
                        <mxPoint x="770" y="1510" as="targetPoint"/>
                        <Array as="points">
                            <mxPoint x="683" y="1520"/>
                            <mxPoint x="680" y="1520"/>
                            <mxPoint x="680" y="1510"/>
                            <mxPoint x="680" y="1510"/>
                            <mxPoint x="680" y="1540"/>
                            <mxPoint x="697" y="1500"/>
                            <mxPoint x="677" y="1510"/>
                            <mxPoint x="677" y="1497.5"/>
                        </Array>
                    </mxGeometry>
                </mxCell>
                <mxCell id="86" value="YES" style="text;html=1;align=center;verticalAlign=middle;whiteSpace=wrap;rounded=0;fontSize=14;" vertex="1" parent="1">
                    <mxGeometry x="690" y="1300" width="60" height="30" as="geometry"/>
                </mxCell>
                <mxCell id="87" value="NO" style="text;html=1;align=center;verticalAlign=middle;whiteSpace=wrap;rounded=0;fontSize=14;" vertex="1" parent="1">
                    <mxGeometry x="690" y="1510" width="60" height="30" as="geometry"/>
                </mxCell>
                <mxCell id="88" value="Do nothing" style="rounded=0;whiteSpace=wrap;html=1;fontSize=14;fillColor=#ffe6cc;strokeColor=#d79b00;" vertex="1" parent="1">
                    <mxGeometry x="770" y="1460" width="240" height="100" as="geometry"/>
                </mxCell>
                <mxCell id="89" style="edgeStyle=none;html=1;" edge="1" parent="1" source="90" target="91">
                    <mxGeometry relative="1" as="geometry"/>
                </mxCell>
                <mxCell id="90" value="JS &lt;b&gt;&quot;click event&quot;&lt;/b&gt; function executed" style="shape=document;whiteSpace=wrap;html=1;boundedLbl=1;fontSize=14;fillColor=#dae8fc;strokeColor=#6c8ebf;" vertex="1" parent="1">
                    <mxGeometry x="770" y="1300" width="120" height="80" as="geometry"/>
                </mxCell>
                <mxCell id="91" value="&lt;b&gt;Text box value&lt;/b&gt; saved as a JS variable,&amp;nbsp;&lt;b&gt;&quot;prompt&quot;&lt;/b&gt; JS function used for asking the file name and &lt;b&gt;BLOB&lt;/b&gt; objtect for text file generation." style="rounded=0;whiteSpace=wrap;html=1;fontSize=14;fillColor=#ffe6cc;strokeColor=#d79b00;" vertex="1" parent="1">
                    <mxGeometry x="940" y="1290" width="240" height="100" as="geometry"/>
                </mxCell>
                <mxCell id="92" value="Is the button pressed?" style="rhombus;whiteSpace=wrap;html=1;fontSize=14;fillColor=#e1d5e7;strokeColor=#9673a6;" vertex="1" parent="1">
                    <mxGeometry x="160" y="1172.5" width="126" height="115" as="geometry"/>
                </mxCell>
                <mxCell id="94" value="YES" style="text;html=1;align=center;verticalAlign=middle;whiteSpace=wrap;rounded=0;fontSize=14;" vertex="1" parent="1">
                    <mxGeometry x="140" y="1122.5" width="60" height="30" as="geometry"/>
                </mxCell>
                <mxCell id="95" value="NO" style="text;html=1;align=center;verticalAlign=middle;whiteSpace=wrap;rounded=0;fontSize=14;" vertex="1" parent="1">
                    <mxGeometry x="140" y="1312.5" width="60" height="30" as="geometry"/>
                </mxCell>
                <mxCell id="96" value="Do nothing" style="rounded=0;whiteSpace=wrap;html=1;fontSize=14;fillColor=#ffe6cc;strokeColor=#d79b00;" vertex="1" parent="1">
                    <mxGeometry x="-120" y="1262.5" width="240" height="100" as="geometry"/>
                </mxCell>
                <mxCell id="97" style="edgeStyle=none;html=1;" edge="1" parent="1" source="98" target="99">
                    <mxGeometry relative="1" as="geometry"/>
                </mxCell>
                <mxCell id="98" value="JS &lt;b&gt;&quot;click event&quot;&lt;/b&gt; function executed" style="shape=document;whiteSpace=wrap;html=1;boundedLbl=1;fontSize=14;fillColor=#dae8fc;strokeColor=#6c8ebf;" vertex="1" parent="1">
                    <mxGeometry y="1112.5" width="120" height="80" as="geometry"/>
                </mxCell>
                <mxCell id="99" value="&lt;b&gt;Text box value&lt;/b&gt; saved as a JS variable, sliced as a list of words and fields with numbers replaced by themselves but incrementing its number" style="rounded=0;whiteSpace=wrap;html=1;fontSize=14;fillColor=#ffe6cc;strokeColor=#d79b00;" vertex="1" parent="1">
                    <mxGeometry x="-300" y="1102.5" width="240" height="100" as="geometry"/>
                </mxCell>
                <mxCell id="101" value="" style="edgeStyle=elbowEdgeStyle;elbow=horizontal;endArrow=classic;html=1;fontSize=14;exitX=0.5;exitY=0;exitDx=0;exitDy=0;fillColor=#ffe6cc;strokeColor=#d79b00;" edge="1" parent="1" source="92">
                    <mxGeometry width="50" height="50" relative="1" as="geometry">
                        <mxPoint x="225" y="1172.5" as="sourcePoint"/>
                        <mxPoint x="120" y="1150.5" as="targetPoint"/>
                        <Array as="points">
                            <mxPoint x="225" y="1120"/>
                            <mxPoint x="242" y="1110"/>
                            <mxPoint x="222" y="1120"/>
                            <mxPoint x="222" y="1107.5"/>
                        </Array>
                    </mxGeometry>
                </mxCell>
                <mxCell id="103" value="" style="edgeStyle=elbowEdgeStyle;elbow=horizontal;endArrow=classic;html=1;fontSize=14;fillColor=#ffe6cc;strokeColor=#d79b00;" edge="1" parent="1" source="92">
                    <mxGeometry width="50" height="50" relative="1" as="geometry">
                        <mxPoint x="225" y="1290" as="sourcePoint"/>
                        <mxPoint x="120" y="1312.5" as="targetPoint"/>
                        <Array as="points">
                            <mxPoint x="225" y="1302.5"/>
                            <mxPoint x="225" y="1312.5"/>
                            <mxPoint x="225" y="1302.5"/>
                            <mxPoint x="225" y="1332.5"/>
                            <mxPoint x="222" y="1332.5"/>
                            <mxPoint x="222" y="1322.5"/>
                            <mxPoint x="222" y="1322.5"/>
                            <mxPoint x="222" y="1352.5"/>
                            <mxPoint x="239" y="1312.5"/>
                            <mxPoint x="219" y="1322.5"/>
                            <mxPoint x="219" y="1310"/>
                        </Array>
                    </mxGeometry>
                </mxCell>
            </root>
        </mxGraphModel>
    </diagram>
</mxfile>